<svg xmlns="http://www.w3.org/2000/svg" viewBox="0 0 1000 267.4"><defs><style>.cls-1{fill:#f3934d;}</style></defs><g id="Layer_2" data-name="Layer 2"><g id="Layer_1-2" data-name="Layer 1"><path class="cls-1" d="M117.86,1a43.79,43.79,0,0,1,10.38-1H135V38.94l-9.35,1.56q-15.59,2.09-30.63,13a73.76,73.76,0,0,0-22.85,26L67.5,88.79H91.38v40h-26V267.4H26V128.77H0v-40H27.52l1-6.23q4.14-24.4,29.59-49.85,13-13.5,26.22-20.51T117.86,1Z"/><path class="cls-1" d="M183.28,82a115.39,115.39,0,0,1,21.81-2.59q19.2,0,40,10.39a86.75,86.75,0,0,1,38.16,34A91.75,91.75,0,0,1,297,172.38q0,37.91-26,64.38-27,29.08-67,29.08-38.43,0-65.94-27.52-27-27-27-66.46,0-32.72,20.25-57.89A88.45,88.45,0,0,1,183.28,82Zm41.54,43.62A53.94,53.94,0,0,0,203.53,121q-20.78,0-36.35,15.31t-15.57,36.09A56.16,56.16,0,0,0,154.72,190q13.5,34.78,48.29,34.78,21.28,0,35.83-13.24t16.61-34.52V172.9Q255.45,139.68,224.82,125.65Z"/><path class="cls-1" d="M384.73,82a115.39,115.39,0,0,1,21.81-2.59q19.2,0,40,10.39a86.75,86.75,0,0,1,38.16,34,91.75,91.75,0,0,1,13.76,48.55q0,37.91-26,64.38-27,29.08-67,29.08-38.43,0-65.94-27.52-27-27-27-66.46,0-32.72,20.25-57.89A88.45,88.45,0,0,1,384.73,82Zm41.54,43.62A53.94,53.94,0,0,0,405,121q-20.78,0-36.34,15.31t-15.58,36.09A56.16,56.16,0,0,0,356.17,190q13.5,34.78,48.29,34.78,21.29,0,35.83-13.24t16.61-34.52V172.9Q456.9,139.68,426.27,125.65Z"/><path class="cls-1" d="M660.44,95V9.86H702V265.32H660.44V249.23L649,255.46a91.62,91.62,0,0,1-41.53,9.86q-38.44,0-66.47-28-27-27-27-64.9Q514,134,541,107q27.53-27.51,65.43-27.52A93.84,93.84,0,0,1,649,89.31Zm-32.71,29.6a53.79,53.79,0,0,0-21.29-4.68,48.87,48.87,0,0,0-31.68,11.42q-14,11.43-18.69,30.12a40,40,0,0,0-1,10.38q0,17.67,12,32.71t30.11,18.69a82.76,82.76,0,0,0,10.39,1q20.74,0,36.08-14.79a48.28,48.28,0,0,0,15.32-36.09,54.12,54.12,0,0,0-8.31-29.33A49.23,49.23,0,0,0,627.73,124.62Z"/><path class="cls-1" d="M736.76,265.32V78.92h39.46v186.4Z"/><path class="cls-1" d="M857.22,90.34A100.82,100.82,0,0,1,902.91,80h6.75q42,2.08,66.19,28.56T1000,179.65v14.54H927.31q-72.18,0-72.17,1t2.59,6.24q7.78,13.5,24.93,20.24a59.77,59.77,0,0,0,21.8,3.64q17.14,0,30.12-7.27c5.19-2.77,9.26-4.49,12.2-5.19s9.77-1,20.51-1q22.83,0,22.85,1.56,0,2.59-8.06,13.24A102.49,102.49,0,0,1,967.29,243Q945,263.24,911.73,264.8H905.5q-42.06,0-68-25.7t-26-68.28Q811.52,112.68,857.22,90.34ZM932,125.13q-10.9-5.7-26.48-5.71Q878,119.42,864,135q-10.89,10.91-10.9,17.13,0,2.09,51.4,2.08,51.91,0,51.92-2.08,0-5.17-10.9-17.13A52,52,0,0,0,932,125.13Z"/><circle class="cls-1" cx="756.49" cy="29.6" r="19.73"/></g></g></svg>